<?xml version="1.0" encoding="utf-8"?>
<!-- Generator: Adobe Illustrator 16.0.0, SVG Export Plug-In . SVG Version: 6.00 Build 0)  -->
<!DOCTYPE svg PUBLIC "-//W3C//DTD SVG 1.1//EN" "http://www.w3.org/Graphics/SVG/1.1/DTD/svg11.dtd">
<svg version="1.1" id="Layer_1" xmlns="http://www.w3.org/2000/svg" xmlns:xlink="http://www.w3.org/1999/xlink" x="0px" y="0px"
	 width="240px" height="68.75px" viewBox="0 0 1920 550" enable-background="new 0 0 1920 550" xml:space="preserve">
<g>
	<path d="M715.015,403.736c0-9.978,17.126-10.424,17.126-10.424c-0.149-1.341-2.085-8.191-2.085-11.914
		c0-11.914,10.872-13.255,13.701-13.255c4.021,0,5.659,3.276,5.659,4.616c0,3.128-1.787,5.064-5.957,7.744
		c-2.681,1.937-4.617,2.979-4.617,2.979c-1.042,2.682,1.191,6.106,1.191,9.383c14.148-1.043,21.296-2.83,37.678-11.616
		c1.191,0,2.979,1.042,2.979,2.681c0,1.787-1.638,2.234-3.127,3.426c-8.191,6.999-24.424,11.02-37.529,11.765
		c-1.042,5.063-4.319,12.063-16.084,12.063C719.781,411.184,715.015,408.651,715.015,403.736z M732.142,399.27
		c-4.766-0.149-9.233,1.488-9.233,2.829c0,0.894,0.596,2.085,2.234,2.085C729.163,404.184,732.142,401.949,732.142,399.27z"/>
	<path d="M810.179,422.055c0,0-71.187,124.204-101.418,124.204c-4.021,0-6.553-2.829-6.553-6.851
		c0-30.529,101.269-122.863,101.269-122.863s11.617-22.786,11.617-31.871c0-2.383-0.745-2.68-1.937-2.68
		c-6.106,0-28.296,25.764-39.316,25.764c-3.425,0-5.808-2.383-5.808-5.213c0-5.808,5.51-15.488,9.233-20.7
		c2.085-2.829,4.468-4.021,5.957-4.021s2.383,0.744,2.383,2.383c0,1.34-0.745,3.275-2.83,5.658
		c-2.681,2.979-7.595,11.766-7.595,13.553l0.149,0.298c1.787,0,4.17-0.446,13.85-7.744c7-5.361,20.105-17.126,25.466-17.126
		c4.617,0,7.596,1.936,7.596,10.127c0,8.488-6.702,22.189-6.852,23.083c-0.148,0,39.316-25.913,42.295-26.807
		c0,0,1.49,1.191,1.49,2.829C859.176,388.1,825.221,407.609,810.179,422.055z M709.356,537.025c0,0.596,0.298,1.043,0.894,1.043
		c21.743,0,86.824-106.78,86.824-106.78S709.356,516.027,709.356,537.025z"/>
	<path d="M846.219,400.907c0-4.915,9.829-20.552,13.403-20.552c0.894,0,2.681,0.447,2.681,2.681s-7.297,9.233-7.297,11.914
		c0,0.596,0.446,1.042,1.488,1.042c1.787,0,22.936-16.53,30.977-16.53c2.979,0,4.021,1.341,4.021,3.425
		c0,4.021-2.531,10.723-2.531,13.404c0,0.596,0.297,1.638,1.787,1.638c9.382,0,36.486-13.552,39.613-16.68
		c0,0,2.383,1.937,2.383,3.276c-8.786,9.233-36.934,19.807-43.933,19.807c-5.212,0-6.999-3.574-6.999-5.957
		c0-4.467,1.936-9.382,1.936-11.02l-0.298-0.299c-6.255,0-28.296,18.766-32.317,18.766
		C848.453,405.822,846.219,404.035,846.219,400.907z"/>
	<path d="M982.336,387.652c-0.148,0-27.849,22.19-49.294,22.19c-9.978,0-15.19-5.511-15.19-11.169
		c0-11.914,20.85-25.318,31.274-25.318c2.979,0,6.851,1.49,6.851,5.66c0,8.488-13.85,13.701-22.785,14.893
		c-5.511,0.446-7.298,3.574-7.298,4.914c0,1.936,1.191,3.723,10.127,3.723c18.021,0,44.976-21.146,46.315-21.146
		c0.895,0,1.49,0.446,1.49,1.936v0.447C983.826,385.865,982.932,386.908,982.336,387.652z M932,387.802
		c3.425-0.149,15.785-4.468,15.785-6.403c0-0.745-0.446-1.043-1.34-1.043C944.211,380.355,932,386.015,932,387.802z"/>
	<path d="M1041.014,383.93c0,2.681-12.809,8.34-22.34,8.34c-5.361,0-16.68-1.34-16.68-1.34c-6.403,0-22.785,16.084-25.466,16.084
		s-3.724-0.745-4.616-1.787c-0.596-0.745-1.043-1.191-1.043-1.787c0-0.895,0.596-1.937,1.936-4.319
		c3.574-6.106,8.34-17.126,10.276-19.063c0.745-0.894,1.638-1.191,2.383-1.191c1.191,0,2.085,0.745,2.681,2.085
		c0,0.148,0.148,0.447,0.148,0.744c0,2.234-5.51,11.17-5.51,11.318c0.447,0.149,12.063-9.232,18.615-9.232
		c1.49,0,3.574,0.297,7.148,0.744c3.277,0.447,4.766,0.596,8.489,0.596c12.808,0,19.808-4.021,20.552-4.021
		C1039.673,381.1,1041.014,381.994,1041.014,383.93z"/>
	<path d="M976.826,492.496c0-41.996,68.804-82.653,68.804-82.653s8.042-14.743,8.042-22.786c0,0,0-0.446-0.447-0.446
		c0,0-26.062,21.445-30.827,21.445c-2.681,0-4.915-2.233-4.915-4.468c0-9.383,20.553-27.7,34.85-27.7
		c5.808,0,10.275,3.128,10.275,7.148c0,10.276-6.255,20.999-6.255,20.999c7.595-5.361,42.444-22.786,42.444-22.786
		c1.191,0,3.127,1.787,3.127,3.128c0,1.787-49.146,29.486-49.146,29.486s-47.061,86.676-68.655,86.676
		C979.953,500.539,976.826,495.624,976.826,492.496z M1040.715,421.012c0,0-56.293,36.785-56.293,71.932
		C995.889,492.943,1040.715,421.012,1040.715,421.012z M1042.354,385.568h-0.148c-2.383,0-14.297,11.02-14.297,11.914
		C1028.354,397.482,1042.354,386.461,1042.354,385.568z"/>
	<path d="M1131.263,422.055c0,0-71.187,124.204-101.419,124.204c-4.021,0-6.553-2.829-6.553-6.851
		c0-30.529,101.27-122.863,101.27-122.863s11.617-22.786,11.617-31.871c0-2.383-0.745-2.68-1.937-2.68
		c-6.106,0-28.296,25.764-39.316,25.764c-3.425,0-5.808-2.383-5.808-5.213c0-5.808,5.51-15.488,9.232-20.7
		c2.086-2.829,4.469-4.021,5.957-4.021c1.49,0,2.383,0.744,2.383,2.383c0,1.34-0.744,3.275-2.829,5.658
		c-2.681,2.979-7.595,11.766-7.595,13.553l0.148,0.298c1.787,0,4.17-0.446,13.85-7.744c7-5.361,20.105-17.126,25.467-17.126
		c4.617,0,7.596,1.936,7.596,10.127c0,8.488-6.702,22.189-6.852,23.083c-0.148,0,39.316-25.913,42.295-26.807
		c0,0,1.49,1.191,1.49,2.829C1180.26,388.1,1146.305,407.609,1131.263,422.055z M1030.439,537.025c0,0.596,0.299,1.043,0.895,1.043
		c21.742,0,86.823-106.78,86.823-106.78S1030.439,516.027,1030.439,537.025z"/>
	<path d="M1235.809,402.844c0-7,18.02-23.68,23.381-23.68c0.895,0,2.383,0.744,3.277,1.489c1.488,1.341,9.232,4.915,19.063,4.915
		c6.553,0,12.807-4.319,14.445-4.319c3.276,0,3.426,1.937,3.426,3.425c0,0.895-9.979,7.148-18.467,7.148
		c-10.574,0-16.68-2.979-17.275-2.979c-1.191,0-1.639,0.745-2.383,2.532c-2.086,4.17-10.426,12.956-14.446,14.893
		c-2.085,1.191-4.468,1.787-6.403,1.787C1236.553,408.056,1235.809,405.077,1235.809,402.844z M1253.232,390.78h-0.148
		c-0.596,0-1.936,1.042-3.872,2.979c-3.276,3.128-5.511,5.957-5.511,6.553C1248.467,397.482,1253.232,391.822,1253.232,390.78z"/>
	<path d="M1215.107,497.411c7.148-13.851,20.553-35.296,40.211-64.336c0-2.681-9.383-2.233-9.383-7.446v-0.148
		c0.148-8.489,18.914-14.446,28.594-17.425c14.445-20.254,80.42-103.652,87.121-103.652c2.234,0,3.574,1.34,3.574,3.574
		c0,19.211-28.742,53.018-60.166,74.761c-0.148,0-12.36,12.808-19.359,21.743c13.85-3.724,33.061-10.872,53.762-23.083
		c1.489,0,2.979,1.638,2.979,3.871c0,1.49-25.764,17.723-62.996,29.041c-8.041,10.723-15.637,20.998-16.084,25.02
		c-3.425,19.36-39.167,62.549-43.337,62.549C1218.682,501.879,1215.107,497.857,1215.107,497.411z M1267.381,417.885l-12.51,6.255
		l5.361,3.128L1267.381,417.885z M1357.184,315.126l-46.316,56.592C1332.164,356.527,1356.736,325.699,1357.184,315.126z"/>
	<path d="M1506.854,294.723c1.787,0,3.426,1.043,3.426,3.724c-0.148,14.893-59.57,80.122-59.57,80.122
		c0,0.148-1.639,3.872-1.639,7.893c0,4.766,2.234,9.979,10.127,9.979c10.723,0,30.828-15.19,31.275-15.19
		c0.446,0,1.34,0.446,1.34,2.233c0,2.234-0.894,3.128-1.34,3.574c-3.574,2.234-19.212,16.084-32.615,16.084
		c-15.637,0-17.127-9.978-17.127-15.189l0.149-2.682c0,0-20.254,23.978-34.104,23.978c-4.021,0-6.999-2.829-6.999-6.403
		c0-14.744,23.679-30.084,28.594-30.084c2.233,0,2.681,2.682,2.681,3.574c0,2.234-1.34,5.361-4.914,6.256
		c-6.256,1.638-18.318,12.658-18.318,16.828c0,0.596,0.447,0.894,1.191,0.894c9.233,0,34.104-27.552,34.104-27.552
		C1455.772,341.933,1497.472,294.723,1506.854,294.723z M1481.388,331.656c11.021-13.85,18.317-24.87,18.317-25.466
		c-0.596,0-10.127,9.68-21.146,23.679c-11.021,14-24.573,34.85-24.573,35.445C1454.581,365.314,1470.367,345.656,1481.388,331.656z"
		/>
	<path d="M1484.365,394.95c0-5.511,2.086-10.127,5.957-13.999c1.341-2.234,5.213-5.809,9.234-5.809c1.787,0,4.17,1.043,4.17,4.17
		c0,3.128-6.702,5.957-9.83,7.744c0,0-2.383,1.639-2.383,7.744c0,1.043,1.341,3.277,4.617,3.277
		c12.808,0,36.338-11.914,44.38-16.829c0.894,0,1.341,0.894,1.341,1.787c0,1.787-0.447,3.574-1.341,4.021
		c-8.936,6.256-30.381,17.127-46.763,17.127C1486.6,404.184,1484.365,398.227,1484.365,394.95z M1509.385,361.889
		c0-1.639,1.341-2.383,2.83-2.383c2.085,0,4.766,1.639,4.766,4.914c0,1.937-1.936,2.532-2.83,2.532
		C1512.513,366.952,1509.385,364.123,1509.385,361.889z"/>
	<path d="M1525.32,398.227c0-11.616,25.467-25.02,37.977-25.02c4.914,0,6.254,2.383,6.254,4.617c0,1.787-1.042,3.425-1.787,3.425
		l-0.596,5.511c0,4.021,1.191,8.786,6.852,8.786c12.063,0,38.869-14.297,38.869-14.297c0.894,0,3.574,2.681,3.574,4.021
		c0,1.787-30.381,16.979-42.891,16.979c-11.766,0-12.51-10.426-12.51-12.957v-0.447c-6.701,5.361-16.978,17.871-28.594,17.871
		C1527.555,406.715,1525.32,402.248,1525.32,398.227z M1560.02,381.398h-0.148c-8.191,0-27.85,8.19-27.85,16.977
		c0,0.745,1.043,1.49,2.383,1.49C1540.957,399.566,1555.999,384.973,1560.02,381.398z"/>
	<path d="M1596.656,403.736c0-9.978,17.126-10.424,17.126-10.424c-0.149-1.341-2.085-8.191-2.085-11.914
		c0-11.914,10.871-13.255,13.701-13.255c4.021,0,5.659,3.276,5.659,4.616c0,3.128-1.787,5.064-5.957,7.744
		c-2.681,1.937-4.616,2.979-4.616,2.979c-1.043,2.682,1.191,6.106,1.191,9.383c14.147-1.043,21.296-2.83,37.678-11.616
		c1.191,0,2.979,1.042,2.979,2.681c0,1.787-1.639,2.234-3.127,3.426c-8.191,6.999-24.424,11.02-37.529,11.765
		c-1.043,5.063-4.319,12.063-16.084,12.063C1601.422,411.184,1596.656,408.651,1596.656,403.736z M1613.782,399.27
		c-4.766-0.149-9.233,1.488-9.233,2.829c0,0.894,0.596,2.085,2.234,2.085C1610.804,404.184,1613.782,401.949,1613.782,399.27z"/>
	<path d="M1599.039,480.434c0-4.468,5.361-14.297,14.297-29.041c41.55-67.016,59.421-91.589,66.569-91.589
		c2.681,0,4.468,1.787,4.468,4.021c0,4.915-10.275,13.404-10.275,13.404s2.233-1.341,5.808-1.341s6.999,2.681,6.999,7.595
		c0,2.234-0.446,6.106-1.34,7.894c21.445-1.787,33.211-4.319,40.359-10.127c1.936,0.149,3.574,4.319,3.574,5.063
		c-12.51,7.893-30.828,11.467-47.359,13.254c0,0-9.084,16.829-22.338,17.275c-4.915,0-7.596-3.275-7.596-5.957
		c0-12.063,24.871-17.275,24.871-17.275s2.829-5.51,2.829-8.19c0-1.787-2.233-2.383-3.128-2.383
		c-11.615,0-30.381,29.04-50.485,61.208c-17.871,27.701-20.104,39.316-23.679,39.316
		C1600.379,483.561,1599.039,481.773,1599.039,480.434z M1672.906,402.844c-9.383,2.233-11.617,4.021-11.617,5.808l0.299,0.298
		C1666.502,408.949,1672.906,402.844,1672.906,402.844z"/>
	<path d="M1707.159,402.844c0-7,18.021-23.68,23.382-23.68c0.893,0,2.383,0.744,3.275,1.489c1.49,1.341,9.234,4.915,19.063,4.915
		c6.553,0,12.809-4.319,14.446-4.319c3.276,0,3.425,1.937,3.425,3.425c0,0.895-9.978,7.148-18.467,7.148
		c-10.573,0-16.68-2.979-17.275-2.979c-1.191,0-1.638,0.745-2.383,2.532c-2.084,4.17-10.424,12.956-14.445,14.893
		c-2.085,1.191-4.468,1.787-6.404,1.787C1707.904,408.056,1707.159,405.077,1707.159,402.844z M1724.584,390.78h-0.149
		c-0.596,0-1.937,1.042-3.872,2.979c-3.276,3.128-5.51,5.957-5.51,6.553C1719.818,397.482,1724.584,391.822,1724.584,390.78z"/>
	<path d="M1826.15,383.93c0,2.681-12.809,8.34-22.34,8.34c-5.361,0-16.68-1.34-16.68-1.34c-6.403,0-22.785,16.084-25.466,16.084
		s-3.724-0.745-4.616-1.787c-0.596-0.745-1.043-1.191-1.043-1.787c0-0.895,0.596-1.937,1.936-4.319
		c3.574-6.106,8.34-17.126,10.276-19.063c0.745-0.894,1.638-1.191,2.383-1.191c1.191,0,2.085,0.745,2.681,2.085
		c0,0.148,0.148,0.447,0.148,0.744c0,2.234-5.51,11.17-5.51,11.318c0.447,0.149,12.063-9.232,18.615-9.232
		c1.49,0,3.574,0.297,7.148,0.744c3.277,0.447,4.766,0.596,8.489,0.596c12.808,0,19.808-4.021,20.552-4.021
		C1824.81,381.1,1826.15,381.994,1826.15,383.93z"/>
	<path d="M1807.534,398.227c0-11.616,25.466-25.02,37.976-25.02c4.915,0,6.256,2.383,6.256,4.617c0,1.787-1.043,3.425-1.787,3.425
		l-0.596,5.511c0,4.021,1.191,8.786,6.85,8.786c12.063,0,38.87-14.297,38.87-14.297c0.894,0,3.574,2.681,3.574,4.021
		c0,1.787-30.381,16.979-42.891,16.979c-11.765,0-12.51-10.426-12.51-12.957v-0.447c-6.702,5.361-16.978,17.871-28.594,17.871
		C1809.768,406.715,1807.534,402.248,1807.534,398.227z M1842.234,381.398h-0.149c-8.19,0-27.849,8.19-27.849,16.977
		c0,0.745,1.042,1.49,2.383,1.49C1823.172,399.566,1838.213,384.973,1842.234,381.398z"/>
</g>
<g>
	<path d="M22.613,264.501L72.712,242c7.217,26.747,28.445,42.88,54.344,42.88c28.87,0,47.975-19.954,47.975-46.277
		c0-65.382-135.01-48.4-135.01-147.747c0-53.919,39.909-86.61,89.158-86.61c42.456,0,76.421,24.625,88.733,61.137l-49.673,22.926
		c-4.67-20.379-18.256-32.267-37.786-32.267c-21.229,0-35.663,14.01-35.663,33.116c0,58.165,135.435,44.154,135.435,150.294
		c0,60.287-44.154,100.195-101.47,100.195C77.807,339.647,35.775,308.231,22.613,264.501z"/>
	<path d="M324.899,179.589L224.278,8.491h68.354l59.863,117.603L412.783,8.491h67.93L380.092,179.589v155.814h-55.192V179.589z"/>
	<path d="M563.924,134.585v200.818h-55.193V0l196.571,210.158V8.491h55.193v336.252L563.924,134.585z"/>
	<path d="M821.632,8.491h203.789v55.193H876.824v80.667h131.614v55.193H876.824v80.667h148.597v55.193H821.632V8.491z"/>
	<path d="M1247.041,335.403l-67.08-121h-48.824v121h-55.193V8.491h121.849c56.467,0,102.744,41.607,102.744,102.744
		c0,46.702-26.323,81.94-64.108,96.375l74.298,127.793H1247.041z M1131.137,159.21h62.41c30.568,0,51.796-16.982,51.796-47.976
		c0-30.568-21.228-47.551-51.796-47.551h-62.41V159.21z"/>
	<path d="M1468.656,8.491h95.102c90.432,0,163.456,73.024,163.456,163.456c0,90.432-73.024,163.457-163.456,163.457h-95.102V8.491z
		 M1563.758,280.21c60.712,0,108.263-47.975,108.263-108.263c0-59.863-47.551-108.263-108.263-108.263h-39.908V280.21H1563.758z"/>
</g>
</svg>
