<?xml version="1.0" encoding="utf-8"?>
<!-- Generator: Adobe Illustrator 16.0.0, SVG Export Plug-In . SVG Version: 6.00 Build 0)  -->
<!DOCTYPE svg PUBLIC "-//W3C//DTD SVG 1.1//EN" "http://www.w3.org/Graphics/SVG/1.1/DTD/svg11.dtd">
<svg version="1.1" id="Layer_1" xmlns="http://www.w3.org/2000/svg" xmlns:xlink="http://www.w3.org/1999/xlink" x="0px" y="0px"
	 width="600px" height="100px" viewBox="0 0 600 100" enable-background="new 0 0 600 100" xml:space="preserve">
<g>
	<path d="M65.1,27.208c-1.68,1.96-3.38,4.281-5.1,6.96c-1.72,2.68-3.351,5.55-4.89,8.61c-1.541,3.06-2.951,6.201-4.23,9.42
		c-1.281,3.22-2.34,6.351-3.18,9.39c1.839-0.56,3.72-1.1,5.64-1.62c1.92-0.519,3.759-0.969,5.52-1.35
		c1.759-0.38,3.399-0.649,4.92-0.81c1.52-0.16,2.799-0.14,3.84,0.06c1,0.201,1.899,0.53,2.7,0.99c0.799,0.46,1.47,1.011,2.01,1.649
		c0.54,0.641,0.92,1.341,1.14,2.101c0.219,0.759,0.27,1.5,0.15,2.22c-0.081,0.279-0.23,0.55-0.45,0.811
		c-0.22,0.259-0.45,0.479-0.69,0.659c-0.24,0.181-0.47,0.301-0.69,0.36c-0.22,0.06-0.37-0.011-0.45-0.21
		c-0.041-0.04-0.03-0.261,0.03-0.66c0.06-0.4,0.05-0.74-0.03-1.02c-0.84-0.441-2.13-0.61-3.87-0.511c-1.74,0.1-3.72,0.351-5.94,0.75
		c-2.22,0.399-4.56,0.88-7.02,1.44c-2.46,0.56-4.851,1.069-7.17,1.53c-2.32,0.459-4.44,0.819-6.36,1.08
		c-1.92,0.26-3.44,0.289-4.56,0.09c-0.52-0.081-0.93-0.33-1.23-0.75c-0.3-0.42-0.519-0.87-0.66-1.351
		c-0.14-0.479-0.189-0.899-0.15-1.26c0.04-0.359,0.12-0.54,0.24-0.54c0.44,0.08,1.43-0.11,2.97-0.569
		c1.539-0.461,3.41-1.031,5.61-1.711c-0.081-0.32-0.16-0.63-0.24-0.93c-0.081-0.3-0.15-0.66-0.21-1.08s-0.081-0.949-0.06-1.59
		c0.02-0.64,0.09-1.46,0.21-2.46c0.279-2.319,0.879-4.899,1.8-7.74c0.919-2.84,2.079-5.72,3.48-8.64c1.4-2.919,3.03-5.78,4.89-8.58
		c1.86-2.799,3.859-5.34,6-7.62c2.139-2.28,4.399-4.2,6.78-5.76c2.379-1.56,4.81-2.56,7.29-3c1.44-0.24,2.88-0.069,4.32,0.51
		c1.44,0.581,2.649,1.5,3.63,2.76c0.979,1.26,1.62,2.79,1.92,4.59c0.3,1.8,0.009,3.78-0.87,5.94c-0.84,2.04-1.821,3.76-2.94,5.16
		c-1.12,1.4-2.291,2.53-3.51,3.39c-1.22,0.86-2.43,1.51-3.63,1.95c-1.2,0.441-2.31,0.72-3.33,0.84c-1.02,0.12-1.9,0.141-2.64,0.06
		c-0.741-0.08-1.23-0.2-1.47-0.36c-0.44-0.279-0.66-0.53-0.66-0.75c0-0.219,0.3-0.489,0.9-0.81c1.44-0.759,2.81-1.689,4.11-2.79
		c1.299-1.1,2.49-2.28,3.57-3.54c1.08-1.26,2.049-2.529,2.91-3.81c0.86-1.279,1.55-2.479,2.07-3.6c0.52-1.12,0.85-2.08,0.99-2.88
		c0.14-0.799,0.069-1.359-0.21-1.68c-0.441-0.44-1.08-0.669-1.92-0.69c-0.84-0.02-1.84,0.21-3,0.69c-1.161,0.48-2.44,1.26-3.84,2.34
		C68.139,23.968,66.66,25.408,65.1,27.208z"/>
	<path d="M97.739,43.528c-0.32,1.68-1.12,3.17-2.4,4.47c-1.281,1.3-2.7,2.4-4.26,3.301c-1.56,0.899-3.1,1.609-4.62,2.129
		c-1.521,0.521-2.7,0.82-3.54,0.9c-0.201,0.801-0.24,1.62-0.12,2.46s0.459,1.38,1.02,1.62c0.52,0.24,1.25,0.25,2.19,0.03
		c0.939-0.22,1.97-0.58,3.09-1.08c1.12-0.5,2.26-1.119,3.42-1.86c1.16-0.739,2.22-1.489,3.18-2.25c0.6-0.56,1.02-0.84,1.26-0.84
		c0.24,0,0.369,0.15,0.39,0.45c0.02,0.3-0.04,0.67-0.18,1.11c-0.141,0.439-0.27,0.801-0.39,1.08c-0.201,0.359-0.6,1.01-1.2,1.949
		c-0.6,0.94-1.4,1.881-2.4,2.82c-1,0.94-2.181,1.74-3.54,2.399c-1.36,0.66-2.92,0.891-4.68,0.69c-0.641-0.04-1.401-0.261-2.28-0.66
		c-0.88-0.399-1.72-0.979-2.52-1.74c-0.8-0.759-1.48-1.71-2.04-2.85c-0.561-1.14-0.86-2.469-0.9-3.99c0.08-2.279,0.6-4.47,1.56-6.57
		s2.109-3.979,3.45-5.64c1.339-1.659,2.769-3,4.29-4.02c1.52-1.02,2.899-1.57,4.14-1.65c1.28-0.08,2.4,0.13,3.36,0.63
		c0.96,0.5,1.74,1.14,2.34,1.92c0.6,0.78,1.02,1.641,1.26,2.58C97.859,41.858,97.898,42.729,97.739,43.528z M93.719,40.288
		c-0.36-0.24-0.84-0.219-1.44,0.06c-0.6,0.28-1.23,0.711-1.89,1.29c-0.66,0.581-1.35,1.281-2.07,2.1c-0.72,0.82-1.39,1.67-2.01,2.55
		c-0.621,0.88-1.161,1.731-1.62,2.55c-0.46,0.82-0.791,1.53-0.99,2.13c1.32-0.48,2.66-1.26,4.02-2.34c1.359-1.08,2.55-2.2,3.57-3.36
		c1.02-1.16,1.77-2.22,2.25-3.18S94.079,40.528,93.719,40.288z"/>
	<path d="M103.259,61.048c0.04,0.12,0.159,0.21,0.36,0.271c0.2,0.06,0.41,0.11,0.63,0.149c0.22,0.041,0.43,0.081,0.63,0.12
		c0.2,0.041,0.3,0.12,0.3,0.24c0.04,0.24-0.04,0.51-0.24,0.811c-0.201,0.3-0.441,0.589-0.72,0.869c-0.28,0.28-0.57,0.52-0.87,0.721
		c-0.3,0.199-0.57,0.319-0.81,0.359c-0.44,0.08-0.891,0-1.35-0.239c-0.46-0.24-0.88-0.621-1.26-1.141
		c-0.38-0.521-0.681-1.19-0.9-2.01c-0.22-0.819-0.33-1.77-0.33-2.85c0.04-1.479,0.279-3.13,0.72-4.95
		c0.439-1.82,1.02-3.74,1.74-5.76c0.72-2.02,1.569-4.11,2.55-6.27c0.979-2.16,2.01-4.32,3.09-6.48c-0.64-0.12-1.161-0.26-1.56-0.42
		c-0.521-0.2-0.891-0.45-1.11-0.75c-0.22-0.3-0.351-0.6-0.39-0.9c-0.041-0.3-0.041-0.57,0-0.81c0.04-0.24,0.08-0.42,0.12-0.54
		c0.12-0.48,0.709-0.86,1.77-1.14c1.059-0.279,2.349-0.48,3.87-0.6c1.16-2.16,2.27-4.08,3.33-5.76c1.06-1.68,1.97-2.979,2.73-3.9
		c0.52-0.24,1.12-0.22,1.8,0.06c0.68,0.28,1.28,0.67,1.8,1.17c0.52,0.5,0.89,1.041,1.11,1.62c0.22,0.58,0.17,1.03-0.15,1.35
		c-0.201,0.201-0.58,0.771-1.14,1.71c-0.561,0.94-1.221,2.11-1.98,3.51c1.479,0,2.81,0.021,3.99,0.06
		c1.179,0.04,2.03,0.06,2.55,0.06c0.2,0,0.399,0.09,0.6,0.27c0.2,0.18,0.14,0.57-0.18,1.17c-0.441,0.84-1.031,1.54-1.77,2.1
		c-0.741,0.561-1.57,1.01-2.49,1.35c-0.92,0.34-1.88,0.581-2.88,0.72c-1,0.141-1.96,0.21-2.88,0.21
		c-0.88,1.761-1.791,3.591-2.73,5.49c-0.94,1.9-1.83,3.771-2.67,5.61c-0.84,1.84-1.63,3.6-2.37,5.28c-0.741,1.68-1.35,3.18-1.83,4.5
		c-0.48,1.319-0.831,2.399-1.05,3.239C103.068,60.389,103.058,60.889,103.259,61.048z"/>
	<path d="M122.338,15.688c0.519,0,1.02,0.09,1.5,0.27c0.48,0.18,0.89,0.4,1.23,0.66c0.339,0.261,0.609,0.54,0.81,0.84
		c0.2,0.3,0.3,0.551,0.3,0.75c0,0.6-0.261,1.26-0.78,1.98c-0.521,0.72-1.11,1.41-1.77,2.07c-0.66,0.66-1.311,1.221-1.95,1.68
		c-0.64,0.46-1.08,0.73-1.32,0.81c-0.441,0.12-0.791,0.12-1.05,0c-0.261-0.12-0.45-0.279-0.57-0.48c-0.12-0.2-0.18-0.42-0.18-0.66
		c0-0.24,0.02-0.399,0.06-0.48c0.96-1.6,1.59-3.03,1.89-4.29c0.3-1.26,0.489-2.07,0.57-2.43c0.08-0.2,0.189-0.369,0.33-0.51
		C121.547,15.759,121.858,15.688,122.338,15.688z"/>
	<path d="M137.457,55.168c-0.84-1.359-1.75-2.85-2.73-4.47c-0.981-1.62-1.65-3.35-2.01-5.19c-0.32-1.68-0.201-3.14,0.36-4.38
		c0.56-1.24,1.37-2.26,2.43-3.06c1.06-0.8,2.25-1.359,3.57-1.68c1.32-0.32,2.619-0.379,3.9-0.18c0.96,0.12,1.68,0.441,2.16,0.96
		c0.48,0.52,0.8,1.13,0.96,1.83c0.159,0.701,0.199,1.42,0.12,2.16c-0.081,0.741-0.22,1.371-0.42,1.89
		c-0.12,0.201-0.49,0.09-1.11-0.33c-0.621-0.42-1.311-0.87-2.07-1.35c-0.76-0.48-1.521-0.849-2.28-1.11
		c-0.76-0.26-1.341-0.129-1.74,0.39c-0.4,0.561-0.041,1.88,1.08,3.96c0.36,0.64,0.81,1.36,1.35,2.16c0.54,0.801,1.06,1.62,1.56,2.46
		c0.5,0.84,0.93,1.671,1.29,2.491c0.36,0.82,0.56,1.57,0.6,2.25c0,1.199-0.261,2.38-0.78,3.539c-0.52,1.161-1.23,2.19-2.13,3.091
		c-0.9,0.899-1.96,1.619-3.18,2.159c-1.22,0.54-2.53,0.811-3.93,0.811c-1.68-0.04-3.081-0.45-4.2-1.23
		c-1.12-0.779-1.95-1.77-2.49-2.97s-0.791-2.51-0.75-3.93c0.039-1.419,0.399-2.77,1.08-4.05c0.439-0.8,0.83-1.18,1.17-1.141
		c0.339,0.041,0.529,0.46,0.57,1.26c0,0.721,0.219,1.53,0.66,2.431c0.439,0.899,0.99,1.739,1.65,2.52s1.37,1.41,2.13,1.891
		c0.759,0.479,1.5,0.681,2.22,0.6c0.72-0.08,1.189-0.5,1.41-1.26C138.126,56.929,137.976,56.089,137.457,55.168z"/>
	<path d="M175.316,55.168c-0.84-1.359-1.75-2.85-2.73-4.47c-0.981-1.62-1.65-3.35-2.01-5.19c-0.32-1.68-0.201-3.14,0.36-4.38
		c0.56-1.24,1.37-2.26,2.43-3.06c1.06-0.8,2.25-1.359,3.57-1.68c1.32-0.32,2.619-0.379,3.9-0.18c0.96,0.12,1.68,0.441,2.16,0.96
		c0.48,0.52,0.8,1.13,0.96,1.83c0.159,0.701,0.199,1.42,0.12,2.16c-0.081,0.741-0.22,1.371-0.42,1.89
		c-0.12,0.201-0.49,0.09-1.11-0.33c-0.621-0.42-1.311-0.87-2.07-1.35c-0.76-0.48-1.521-0.849-2.28-1.11
		c-0.76-0.26-1.341-0.129-1.74,0.39c-0.4,0.561-0.041,1.88,1.08,3.96c0.36,0.64,0.81,1.36,1.35,2.16c0.54,0.801,1.06,1.62,1.56,2.46
		c0.5,0.84,0.93,1.671,1.29,2.491c0.36,0.82,0.56,1.57,0.6,2.25c0,1.199-0.261,2.38-0.78,3.539c-0.52,1.161-1.23,2.19-2.13,3.091
		c-0.9,0.899-1.96,1.619-3.18,2.159c-1.22,0.54-2.53,0.811-3.93,0.811c-1.68-0.04-3.081-0.45-4.2-1.23
		c-1.12-0.779-1.95-1.77-2.49-2.97s-0.791-2.51-0.75-3.93c0.039-1.419,0.399-2.77,1.08-4.05c0.439-0.8,0.83-1.18,1.17-1.141
		c0.339,0.041,0.529,0.46,0.57,1.26c0,0.721,0.219,1.53,0.66,2.431c0.439,0.899,0.99,1.739,1.65,2.52s1.37,1.41,2.13,1.891
		c0.759,0.479,1.5,0.681,2.22,0.6c0.72-0.08,1.189-0.5,1.41-1.26C175.986,56.929,175.835,56.089,175.316,55.168z"/>
	<path d="M205.616,43.528c-0.32,1.68-1.12,3.17-2.4,4.47c-1.281,1.3-2.7,2.4-4.26,3.301c-1.56,0.899-3.1,1.609-4.62,2.129
		c-1.521,0.521-2.7,0.82-3.54,0.9c-0.201,0.801-0.24,1.62-0.12,2.46s0.459,1.38,1.02,1.62c0.52,0.24,1.25,0.25,2.19,0.03
		c0.939-0.22,1.97-0.58,3.09-1.08c1.12-0.5,2.26-1.119,3.42-1.86c1.16-0.739,2.22-1.489,3.18-2.25c0.6-0.56,1.02-0.84,1.26-0.84
		c0.24,0,0.369,0.15,0.39,0.45c0.02,0.3-0.04,0.67-0.18,1.11c-0.141,0.439-0.27,0.801-0.39,1.08c-0.201,0.359-0.6,1.01-1.2,1.949
		c-0.6,0.94-1.4,1.881-2.4,2.82c-1,0.94-2.181,1.74-3.54,2.399c-1.36,0.66-2.92,0.891-4.68,0.69c-0.641-0.04-1.401-0.261-2.28-0.66
		c-0.88-0.399-1.72-0.979-2.52-1.74c-0.8-0.759-1.48-1.71-2.04-2.85c-0.561-1.14-0.86-2.469-0.9-3.99c0.08-2.279,0.6-4.47,1.56-6.57
		s2.109-3.979,3.45-5.64c1.339-1.659,2.769-3,4.29-4.02c1.52-1.02,2.899-1.57,4.14-1.65c1.28-0.08,2.4,0.13,3.36,0.63
		c0.96,0.5,1.74,1.14,2.34,1.92c0.6,0.78,1.02,1.641,1.26,2.58C205.736,41.858,205.775,42.729,205.616,43.528z M201.596,40.288
		c-0.36-0.24-0.84-0.219-1.44,0.06c-0.6,0.28-1.23,0.711-1.89,1.29c-0.66,0.581-1.35,1.281-2.07,2.1c-0.72,0.82-1.39,1.67-2.01,2.55
		c-0.621,0.88-1.161,1.731-1.62,2.55c-0.46,0.82-0.791,1.53-0.99,2.13c1.32-0.48,2.66-1.26,4.02-2.34c1.359-1.08,2.55-2.2,3.57-3.36
		c1.02-1.16,1.77-2.22,2.25-3.18S201.956,40.528,201.596,40.288z"/>
	<path d="M227.035,51.208c-0.801-0.159-1.47-0.469-2.01-0.93c-0.54-0.459-0.96-1.01-1.26-1.65c-0.3-0.64-0.51-1.35-0.63-2.13
		c-0.12-0.78-0.16-1.59-0.12-2.43c-1.2,1.36-2.511,2.89-3.93,4.59c-1.42,1.701-2.75,3.42-3.99,5.16c-1.24,1.74-2.28,3.4-3.12,4.979
		c-0.84,1.581-1.281,2.931-1.32,4.051c-0.04,0.359-0.33,0.56-0.87,0.6c-0.54,0.039-1.131-0.07-1.77-0.33
		c-0.641-0.261-1.221-0.66-1.74-1.2s-0.78-1.209-0.78-2.01c0-0.76,0.24-1.839,0.72-3.24c0.48-1.399,1.089-2.939,1.83-4.619
		c0.74-1.681,1.55-3.391,2.43-5.13c0.879-1.74,1.71-3.35,2.49-4.83c0.78-1.479,1.45-2.709,2.01-3.69c0.56-0.98,0.9-1.55,1.02-1.71
		c0.12-0.2,0.41-0.189,0.87,0.03c0.459,0.22,0.939,0.54,1.44,0.96c0.5,0.42,0.95,0.891,1.35,1.41c0.399,0.52,0.6,0.96,0.6,1.32
		c0,0.24-0.28,0.861-0.84,1.86c-0.561,1-1.2,2.34-1.92,4.02c0.799-0.999,1.779-2.06,2.94-3.18c1.16-1.12,2.259-2.16,3.3-3.12
		c0.399-1.44,0.96-2.7,1.68-3.78c0.24-0.36,0.639-0.51,1.2-0.45c0.56,0.06,1.13,0.24,1.71,0.54c0.579,0.3,1.08,0.69,1.5,1.17
		c0.42,0.48,0.63,0.96,0.63,1.44c-0.36,1.2-0.72,2.331-1.08,3.39c-0.36,1.06-0.66,2.04-0.9,2.94c-0.24,0.9-0.381,1.75-0.42,2.55
		c-0.041,0.801,0.08,1.521,0.36,2.16c0.159,0.44,0.189,0.771,0.09,0.99C228.405,51.158,227.915,51.248,227.035,51.208z"/>
	<path d="M253.673,38.308c0.04,1.601-0.22,3.34-0.78,5.22c-0.56,1.88-1.31,3.76-2.25,5.64c-0.94,1.88-2,3.69-3.18,5.429
		c-1.18,1.74-2.391,3.271-3.63,4.591c-1.241,1.319-2.43,2.37-3.57,3.149c-1.14,0.78-2.13,1.149-2.97,1.11
		c-0.441-0.04-1.041-0.23-1.8-0.57c-0.76-0.34-1.521-0.85-2.28-1.529c-0.76-0.68-1.41-1.521-1.95-2.521
		c-0.54-0.999-0.79-2.18-0.75-3.54c0.04-2.04,0.48-4.13,1.32-6.27c0.84-2.139,1.809-4.119,2.91-5.94c1.1-1.819,2.2-3.35,3.3-4.59
		c1.1-1.239,1.97-1.98,2.61-2.22c0.36-0.12,0.79-0.039,1.29,0.24c0.5,0.28,0.95,0.66,1.35,1.14c0.399,0.48,0.699,0.98,0.9,1.5
		c0.2,0.52,0.18,0.96-0.06,1.32c-0.801,1.12-1.68,2.26-2.64,3.42c-0.96,1.161-1.82,2.44-2.58,3.84c-0.6,1.121-1.13,2.25-1.59,3.39
		c-0.46,1.14-0.81,2.171-1.05,3.09c-0.24,0.921-0.321,1.69-0.24,2.311c0.08,0.62,0.36,0.95,0.84,0.989
		c0.52,0.041,1.23-0.3,2.13-1.02c0.9-0.721,1.86-1.67,2.88-2.85s2.049-2.551,3.09-4.11c1.04-1.56,1.97-3.16,2.79-4.8
		c0.819-1.64,1.44-3.27,1.86-4.89c0.42-1.62,0.55-3.09,0.39-4.41c0-0.08-0.201-0.08-0.6,0c-0.4,0.081-0.6,0.081-0.6,0
		c0-0.399,0.06-0.729,0.18-0.99c0.12-0.26,0.279-0.53,0.48-0.81c0.32-0.36,0.71-0.51,1.17-0.45c0.459,0.06,0.92,0.3,1.38,0.72
		c0.459,0.42,0.85,1,1.17,1.74C253.514,36.379,253.673,37.269,253.673,38.308z"/>
	<path d="M273.774,43.528c-0.32,1.68-1.12,3.17-2.4,4.47c-1.28,1.3-2.699,2.4-4.26,3.301c-1.56,0.899-3.1,1.609-4.62,2.129
		c-1.521,0.521-2.699,0.82-3.54,0.9c-0.2,0.801-0.239,1.62-0.119,2.46c0.119,0.84,0.459,1.38,1.02,1.62
		c0.52,0.24,1.25,0.25,2.19,0.03c0.938-0.22,1.97-0.58,3.09-1.08c1.119-0.5,2.259-1.119,3.42-1.86c1.159-0.739,2.22-1.489,3.18-2.25
		c0.601-0.56,1.021-0.84,1.26-0.84c0.24,0,0.37,0.15,0.391,0.45c0.02,0.3-0.041,0.67-0.181,1.11c-0.141,0.439-0.27,0.801-0.39,1.08
		c-0.2,0.359-0.6,1.01-1.2,1.949c-0.6,0.94-1.4,1.881-2.399,2.82c-1.001,0.94-2.181,1.74-3.54,2.399
		c-1.36,0.66-2.921,0.891-4.681,0.69c-0.64-0.04-1.4-0.261-2.279-0.66c-0.881-0.399-1.721-0.979-2.521-1.74
		c-0.801-0.759-1.48-1.71-2.04-2.85c-0.561-1.14-0.86-2.469-0.899-3.99c0.079-2.279,0.6-4.47,1.56-6.57s2.109-3.979,3.45-5.64
		c1.34-1.659,2.77-3,4.29-4.02c1.52-1.02,2.899-1.57,4.14-1.65c1.28-0.08,2.4,0.13,3.36,0.63c0.96,0.5,1.74,1.14,2.34,1.92
		c0.6,0.78,1.02,1.641,1.26,2.58C273.894,41.858,273.933,42.729,273.774,43.528z M269.754,40.288c-0.36-0.24-0.841-0.219-1.44,0.06
		c-0.6,0.28-1.229,0.711-1.89,1.29c-0.66,0.581-1.351,1.281-2.07,2.1c-0.72,0.82-1.391,1.67-2.01,2.55
		c-0.621,0.88-1.161,1.731-1.62,2.55c-0.46,0.82-0.79,1.53-0.99,2.13c1.32-0.48,2.66-1.26,4.021-2.34
		c1.359-1.08,2.55-2.2,3.569-3.36c1.021-1.16,1.771-2.22,2.25-3.18C270.054,41.128,270.114,40.528,269.754,40.288z"/>
	<path d="M305.152,62.309c-0.959,0.239-1.84,0.33-2.639,0.27c-0.801-0.06-1.5-0.22-2.101-0.479c-0.6-0.26-1.109-0.609-1.529-1.051
		c-0.421-0.439-0.73-0.899-0.931-1.38c-1.08,2.001-2.08,3.96-3,5.88c-0.921,1.92-1.73,3.67-2.43,5.25
		c-0.7,1.58-1.27,2.93-1.71,4.051c-0.439,1.119-0.72,1.899-0.84,2.34c-0.08,0.319-0.35,0.439-0.811,0.359
		c-0.459-0.08-0.939-0.32-1.439-0.72c-0.5-0.4-0.939-0.95-1.32-1.649c-0.38-0.701-0.55-1.511-0.51-2.431c0-0.72,0.2-1.78,0.6-3.18
		c0.4-1.4,0.94-3.011,1.62-4.83c0.681-1.82,1.461-3.789,2.34-5.91c0.881-2.119,1.8-4.25,2.76-6.39s1.93-4.22,2.91-6.24
		c0.979-2.02,1.891-3.86,2.73-5.52c0.84-1.659,1.579-3.06,2.219-4.2c0.641-1.14,1.119-1.89,1.441-2.25
		c0.158-0.2,0.549-0.24,1.17-0.12c0.619,0.12,1.238,0.351,1.859,0.69c0.619,0.34,1.129,0.771,1.529,1.29
		c0.4,0.52,0.48,1.08,0.24,1.68c-0.24,0.6-0.439,1.061-0.6,1.38c-0.16,0.32-0.33,0.65-0.51,0.99c-0.18,0.34-0.41,0.801-0.689,1.38
		c-0.281,0.581-0.701,1.431-1.262,2.55c1.721-2.319,3.16-3.98,4.32-4.98c1.16-1,2.26-1.479,3.301-1.44c0.721,0,1.4,0.17,2.039,0.51
		c0.641,0.34,1.201,0.75,1.682,1.23c0.479,0.48,0.879,1,1.199,1.56c0.32,0.561,0.5,1.08,0.539,1.56c0.121,1.281-0.051,2.9-0.51,4.86
		c-0.459,1.96-1.199,3.931-2.219,5.91c-1.021,1.979-2.32,3.81-3.9,5.49C309.123,60.448,307.273,61.629,305.152,62.309z
		 M298.973,57.748c0.52,0.04,1.149,0.021,1.89-0.06c0.739-0.08,1.61-0.42,2.61-1.021c1.359-0.92,2.629-2.16,3.811-3.72
		c1.18-1.56,2.17-3.15,2.969-4.77c0.801-1.62,1.34-3.09,1.621-4.41c0.279-1.32,0.18-2.199-0.301-2.64
		c-0.279-0.24-0.83,0.04-1.65,0.84c-0.82,0.801-1.799,1.94-2.939,3.42c-1.139,1.48-2.359,3.21-3.66,5.19
		c-1.299,1.98-2.549,4.03-3.75,6.15L298.973,57.748z"/>
	<path d="M337.193,58.648c0.039,0.12,0.158,0.21,0.359,0.27c0.199,0.061,0.41,0.101,0.629,0.12c0.221,0.021,0.43,0.04,0.631,0.061
		c0.199,0.021,0.301,0.09,0.301,0.21c0.039,0.239-0.031,0.52-0.211,0.84s-0.4,0.63-0.66,0.93s-0.539,0.551-0.84,0.75
		c-0.299,0.2-0.57,0.319-0.811,0.36c-0.439,0.039-0.898-0.12-1.379-0.48c-0.48-0.359-0.93-0.87-1.35-1.529
		c-0.42-0.66-0.75-1.46-0.99-2.4c-0.24-0.939-0.34-1.95-0.301-3.03v-0.42c-1.16,1.641-2.18,3-3.061,4.08
		c-0.879,1.08-1.66,1.931-2.34,2.55c-0.68,0.621-1.279,1.06-1.799,1.32c-0.521,0.26-1,0.39-1.441,0.39
		c-0.561,0-1.17-0.16-1.828-0.479c-0.66-0.32-1.271-0.77-1.83-1.351c-0.561-0.579-1.031-1.269-1.41-2.069
		c-0.381-0.8-0.57-1.681-0.57-2.641c0.039-0.96,0.248-2.049,0.629-3.27c0.381-1.22,0.861-2.49,1.441-3.81
		c0.578-1.32,1.229-2.64,1.949-3.96c0.721-1.32,1.439-2.56,2.16-3.72c0.721-1.16,1.42-2.19,2.1-3.09s1.279-1.61,1.801-2.13
		c0.359-0.2,0.799-0.18,1.32,0.06c0.52,0.24,0.988,0.6,1.41,1.08c0.42,0.48,0.738,1.03,0.959,1.65
		c0.219,0.621,0.211,1.23-0.029,1.83c-0.121,0.321-0.432,0.921-0.93,1.8c-0.502,0.88-1.08,1.911-1.74,3.09
		c-0.66,1.18-1.342,2.421-2.041,3.72c-0.699,1.3-1.32,2.52-1.859,3.66c-0.541,1.14-0.941,2.11-1.201,2.91
		c-0.26,0.801-0.27,1.28-0.029,1.44s0.66,0.09,1.26-0.21c0.6-0.301,1.35-0.87,2.25-1.71s1.939-1.971,3.121-3.391
		c1.178-1.419,2.469-3.15,3.869-5.19c0.92-1.599,1.84-3.24,2.76-4.92s1.9-3.219,2.939-4.62c0.561-0.24,1.111-0.189,1.65,0.15
		c0.541,0.34,0.99,0.791,1.35,1.35c0.361,0.561,0.621,1.161,0.781,1.8c0.158,0.64,0.119,1.161-0.121,1.56
		c-0.16,0.36-0.459,0.981-0.898,1.86c-0.441,0.88-0.932,1.9-1.471,3.06c-0.541,1.161-1.09,2.37-1.65,3.63
		c-0.561,1.259-1.07,2.441-1.529,3.541c-0.461,1.1-0.82,2.05-1.08,2.85C337.201,57.949,337.111,58.448,337.193,58.648z"/>
	<path d="M363.412,51.208c-0.801-0.159-1.471-0.469-2.01-0.93c-0.541-0.459-0.961-1.01-1.262-1.65c-0.299-0.64-0.51-1.35-0.629-2.13
		c-0.121-0.78-0.16-1.59-0.121-2.43c-1.199,1.36-2.51,2.89-3.93,4.59c-1.42,1.701-2.75,3.42-3.99,5.16s-2.279,3.4-3.119,4.979
		c-0.84,1.581-1.281,2.931-1.32,4.051c-0.041,0.359-0.33,0.56-0.869,0.6c-0.541,0.039-1.131-0.07-1.771-0.33
		c-0.639-0.261-1.221-0.66-1.738-1.2c-0.52-0.54-0.781-1.209-0.781-2.01c0-0.76,0.24-1.839,0.721-3.24
		c0.48-1.399,1.09-2.939,1.83-4.619c0.738-1.681,1.549-3.391,2.43-5.13c0.879-1.74,1.709-3.35,2.49-4.83
		c0.779-1.479,1.449-2.709,2.01-3.69c0.559-0.98,0.9-1.55,1.02-1.71c0.121-0.2,0.41-0.189,0.871,0.03
		c0.459,0.22,0.939,0.54,1.439,0.96s0.949,0.891,1.35,1.41c0.4,0.52,0.6,0.96,0.6,1.32c0,0.24-0.279,0.861-0.84,1.86
		c-0.561,1-1.199,2.34-1.92,4.02c0.801-0.999,1.779-2.06,2.939-3.18c1.16-1.12,2.26-2.16,3.301-3.12c0.4-1.44,0.961-2.7,1.68-3.78
		c0.24-0.36,0.641-0.51,1.201-0.45c0.559,0.06,1.129,0.24,1.709,0.54c0.58,0.3,1.08,0.69,1.5,1.17s0.631,0.96,0.631,1.44
		c-0.361,1.2-0.721,2.331-1.08,3.39c-0.361,1.06-0.66,2.04-0.9,2.94s-0.381,1.75-0.42,2.55c-0.041,0.801,0.08,1.521,0.359,2.16
		c0.16,0.44,0.189,0.771,0.09,0.99S364.291,51.248,363.412,51.208z"/>
	<path d="M379.49,62.309c-0.959,0.239-1.84,0.33-2.639,0.27c-0.801-0.06-1.5-0.22-2.102-0.479c-0.6-0.26-1.109-0.609-1.529-1.051
		c-0.42-0.439-0.73-0.899-0.93-1.38c-1.08,2.001-2.08,3.96-3,5.88c-0.922,1.92-1.73,3.67-2.43,5.25
		c-0.701,1.58-1.27,2.93-1.711,4.051c-0.439,1.119-0.719,1.899-0.84,2.34c-0.08,0.319-0.35,0.439-0.811,0.359
		c-0.459-0.08-0.939-0.32-1.439-0.72c-0.5-0.4-0.939-0.95-1.32-1.649c-0.379-0.701-0.549-1.511-0.51-2.431
		c0-0.72,0.201-1.78,0.6-3.18c0.4-1.4,0.941-3.011,1.621-4.83c0.68-1.82,1.461-3.789,2.34-5.91c0.881-2.119,1.799-4.25,2.76-6.39
		c0.959-2.14,1.93-4.22,2.91-6.24c0.979-2.02,1.891-3.86,2.73-5.52c0.84-1.659,1.578-3.06,2.219-4.2
		c0.641-1.14,1.119-1.89,1.441-2.25c0.158-0.2,0.549-0.24,1.17-0.12c0.619,0.12,1.238,0.351,1.859,0.69
		c0.619,0.34,1.129,0.771,1.529,1.29c0.4,0.52,0.48,1.08,0.24,1.68c-0.24,0.6-0.439,1.061-0.6,1.38c-0.16,0.32-0.33,0.65-0.51,0.99
		c-0.18,0.34-0.41,0.801-0.689,1.38c-0.281,0.581-0.701,1.431-1.262,2.55c1.721-2.319,3.16-3.98,4.32-4.98
		c1.16-1,2.26-1.479,3.301-1.44c0.721,0,1.4,0.17,2.039,0.51c0.641,0.34,1.201,0.75,1.682,1.23c0.479,0.48,0.879,1,1.199,1.56
		c0.32,0.561,0.5,1.08,0.539,1.56c0.121,1.281-0.051,2.9-0.51,4.86c-0.459,1.96-1.199,3.931-2.219,5.91
		c-1.021,1.979-2.32,3.81-3.9,5.49C383.461,60.448,381.611,61.629,379.49,62.309z M373.311,57.748c0.52,0.04,1.15,0.021,1.891-0.06
		c0.738-0.08,1.609-0.42,2.609-1.021c1.359-0.92,2.629-2.16,3.811-3.72c1.18-1.56,2.17-3.15,2.969-4.77
		c0.801-1.62,1.34-3.09,1.621-4.41c0.279-1.32,0.18-2.199-0.301-2.64c-0.279-0.24-0.83,0.04-1.65,0.84
		c-0.82,0.801-1.799,1.94-2.939,3.42c-1.139,1.48-2.359,3.21-3.66,5.19c-1.299,1.98-2.549,4.03-3.75,6.15L373.311,57.748z"/>
	<path d="M414.35,43.048c0.16,1.24,0.121,2.63-0.119,4.17c-0.24,1.541-0.631,3.081-1.17,4.62c-0.541,1.541-1.24,3.03-2.1,4.471
		c-0.861,1.439-1.84,2.71-2.941,3.81c-1.1,1.101-2.309,1.959-3.629,2.58c-1.32,0.62-2.74,0.87-4.26,0.75
		c-0.641-0.04-1.371-0.25-2.189-0.63c-0.82-0.381-1.602-0.9-2.342-1.561c-0.74-0.659-1.369-1.419-1.889-2.279
		c-0.521-0.86-0.801-1.79-0.84-2.79c-0.082-1.56,0.049-3.069,0.389-4.53c0.34-1.459,0.77-2.799,1.291-4.02
		c0.52-1.22,1.09-2.3,1.709-3.24c0.621-0.939,1.17-1.67,1.65-2.19c0.68-0.72,1.299-1.14,1.859-1.26s0.961-0.24,1.201-0.36
		c0.279-0.6,0.609-1.209,0.99-1.83c0.379-0.62,0.83-1.17,1.35-1.65s1.119-0.86,1.801-1.14c0.68-0.279,1.459-0.38,2.34-0.3
		c0.639,0.081,1.35,0.34,2.129,0.78c0.781,0.44,1.52,1,2.221,1.68c0.699,0.681,1.299,1.45,1.799,2.31
		C414.1,41.299,414.35,42.169,414.35,43.048z M406.551,52.168c0.68-1.44,1.23-2.829,1.65-4.17c0.42-1.339,0.689-2.559,0.809-3.66
		c0.121-1.1,0.09-2.02-0.09-2.76c-0.18-0.74-0.51-1.209-0.99-1.41c-0.561-0.32-1.199-0.29-1.92,0.09
		c-0.719,0.38-1.359,0.97-1.92,1.77c-0.4,0.52-0.689,0.98-0.869,1.38c-0.18,0.4-0.41,0.741-0.689,1.02
		c-0.281,0.28-0.631,0.791-1.051,1.53c-0.42,0.741-0.84,1.59-1.26,2.55s-0.811,1.971-1.17,3.03c-0.359,1.061-0.631,2.081-0.811,3.06
		c-0.18,0.981-0.23,1.852-0.15,2.61c0.08,0.761,0.361,1.301,0.84,1.62c0.561,0.24,1.17,0.24,1.83,0s1.33-0.669,2.01-1.29
		c0.68-0.619,1.34-1.39,1.98-2.31S405.99,53.289,406.551,52.168z"/>
	<path d="M426.109,55.168c-0.84-1.359-1.75-2.85-2.729-4.47c-0.98-1.62-1.65-3.35-2.01-5.19c-0.322-1.68-0.201-3.14,0.359-4.38
		c0.559-1.24,1.369-2.26,2.43-3.06c1.059-0.8,2.25-1.359,3.57-1.68c1.32-0.32,2.619-0.379,3.9-0.18c0.959,0.12,1.68,0.441,2.16,0.96
		c0.479,0.52,0.799,1.13,0.959,1.83c0.16,0.701,0.199,1.42,0.121,2.16c-0.082,0.741-0.221,1.371-0.42,1.89
		c-0.121,0.201-0.492,0.09-1.111-0.33c-0.621-0.42-1.311-0.87-2.07-1.35s-1.52-0.849-2.279-1.11c-0.76-0.26-1.34-0.129-1.74,0.39
		c-0.4,0.561-0.041,1.88,1.08,3.96c0.359,0.64,0.811,1.36,1.35,2.16c0.541,0.801,1.061,1.62,1.561,2.46
		c0.5,0.84,0.93,1.671,1.289,2.491c0.361,0.82,0.561,1.57,0.602,2.25c0,1.199-0.262,2.38-0.781,3.539
		c-0.52,1.161-1.229,2.19-2.129,3.091c-0.9,0.899-1.961,1.619-3.18,2.159c-1.221,0.54-2.531,0.811-3.932,0.811
		c-1.68-0.04-3.08-0.45-4.199-1.23c-1.121-0.779-1.949-1.77-2.49-2.97c-0.539-1.2-0.789-2.51-0.75-3.93
		c0.039-1.419,0.4-2.77,1.08-4.05c0.439-0.8,0.83-1.18,1.17-1.141c0.34,0.041,0.529,0.46,0.57,1.26c0,0.721,0.219,1.53,0.66,2.431
		c0.439,0.899,0.99,1.739,1.65,2.52s1.369,1.41,2.129,1.891c0.76,0.479,1.5,0.681,2.221,0.6c0.721-0.08,1.189-0.5,1.41-1.26
		C426.779,56.929,426.629,56.089,426.109,55.168z"/>
	<path d="M456.41,43.528c-0.32,1.68-1.121,3.17-2.4,4.47c-1.281,1.3-2.699,2.4-4.26,3.301c-1.561,0.899-3.1,1.609-4.621,2.129
		c-1.52,0.521-2.699,0.82-3.539,0.9c-0.201,0.801-0.24,1.62-0.119,2.46c0.119,0.84,0.459,1.38,1.02,1.62
		c0.52,0.24,1.25,0.25,2.189,0.03s1.971-0.58,3.09-1.08s2.26-1.119,3.42-1.86c1.16-0.739,2.221-1.489,3.18-2.25
		c0.602-0.56,1.021-0.84,1.26-0.84c0.24,0,0.371,0.15,0.391,0.45s-0.041,0.67-0.18,1.11c-0.141,0.439-0.27,0.801-0.391,1.08
		c-0.199,0.359-0.6,1.01-1.199,1.949c-0.6,0.94-1.4,1.881-2.4,2.82c-1,0.94-2.18,1.74-3.539,2.399
		c-1.361,0.66-2.922,0.891-4.682,0.69c-0.639-0.04-1.4-0.261-2.279-0.66c-0.881-0.399-1.721-0.979-2.52-1.74
		c-0.801-0.759-1.48-1.71-2.041-2.85s-0.859-2.469-0.898-3.99c0.078-2.279,0.6-4.47,1.559-6.57c0.961-2.1,2.109-3.979,3.451-5.64
		c1.34-1.659,2.77-3,4.289-4.02c1.52-1.02,2.9-1.57,4.141-1.65c1.279-0.08,2.4,0.13,3.359,0.63c0.961,0.5,1.74,1.14,2.34,1.92
		c0.6,0.78,1.02,1.641,1.26,2.58C456.529,41.858,456.568,42.729,456.41,43.528z M452.391,40.288c-0.361-0.24-0.842-0.219-1.441,0.06
		c-0.6,0.28-1.229,0.711-1.889,1.29c-0.66,0.581-1.352,1.281-2.07,2.1c-0.721,0.82-1.391,1.67-2.01,2.55
		c-0.621,0.88-1.162,1.731-1.621,2.55c-0.459,0.82-0.789,1.53-0.99,2.13c1.32-0.48,2.66-1.26,4.021-2.34
		c1.359-1.08,2.549-2.2,3.568-3.36c1.021-1.16,1.771-2.22,2.25-3.18C452.689,41.128,452.75,40.528,452.391,40.288z"/>
	<path d="M479.209,37.228c0.32-0.2,0.57-0.169,0.75,0.09c0.182,0.261,0.17,0.55-0.029,0.87c-0.68,0.8-1.42,1.45-2.221,1.95
		c-0.801,0.5-1.609,0.9-2.43,1.2c-0.82,0.3-1.641,0.51-2.459,0.63c-0.82,0.12-1.551,0.201-2.191,0.24
		c0.279,1.08,0.451,2.43,0.512,4.05c0.059,1.62,0.029,3.39-0.092,5.31c-0.119,1.92-0.32,3.94-0.6,6.06
		c-0.279,2.121-0.641,4.181-1.08,6.181c-0.439,1.999-0.939,3.909-1.5,5.729s-1.17,3.391-1.83,4.71
		c-0.66,1.32-1.369,2.34-2.129,3.061c-0.762,0.72-1.561,1.02-2.4,0.899c-0.48,0-1.07-0.16-1.77-0.479
		c-0.701-0.321-1.391-0.811-2.07-1.471c-0.682-0.659-1.26-1.479-1.74-2.46s-0.74-2.15-0.779-3.51c-0.16-1.24-0.051-2.961,0.33-5.16
		c0.379-2.2,0.969-4.669,1.77-7.41c0.799-2.739,1.789-5.669,2.969-8.79c1.18-3.12,2.49-6.219,3.932-9.3
		c-0.361-0.64-0.51-1.27-0.451-1.89c0.061-0.62,0.35-1.089,0.871-1.41c0.359-0.159,0.738-0.18,1.139-0.06
		c1.08-2.28,2.141-4.44,3.182-6.48c1.039-2.04,1.969-3.84,2.789-5.4s1.5-2.81,2.039-3.75c0.541-0.939,0.85-1.449,0.932-1.53
		c0.359-0.36,0.859-0.45,1.5-0.27c0.639,0.18,1.238,0.49,1.799,0.93c0.561,0.441,1.02,0.911,1.381,1.41
		c0.359,0.5,0.459,0.891,0.299,1.17c-0.32,0.561-0.76,1.36-1.318,2.4c-0.561,1.041-1.182,2.23-1.861,3.57
		c-0.68,1.34-1.42,2.79-2.219,4.35c-0.801,1.56-1.602,3.141-2.4,4.74c0.879,0.081,1.77,0.111,2.67,0.09
		c0.9-0.02,1.689-0.049,2.369-0.09C477.67,37.369,478.449,37.309,479.209,37.228z M467.75,45.628c-0.441,0.84-1.02,2.08-1.74,3.72
		c-0.721,1.641-1.451,3.43-2.189,5.371c-0.742,1.94-1.451,3.939-2.131,5.999c-0.68,2.061-1.23,3.95-1.65,5.671
		c-0.42,1.719-0.629,3.159-0.629,4.319s0.299,1.82,0.9,1.98c0.199,0.079,0.529-0.21,0.988-0.87c0.461-0.66,0.961-1.59,1.5-2.79
		c0.541-1.2,1.111-2.64,1.711-4.32c0.6-1.68,1.141-3.54,1.619-5.58c0.48-2.04,0.871-4.2,1.17-6.479
		C467.6,50.368,467.75,48.028,467.75,45.628z"/>
	<path d="M494.33,58.648c0.039,0.12,0.158,0.21,0.359,0.27c0.199,0.061,0.41,0.101,0.629,0.12c0.221,0.021,0.43,0.04,0.631,0.061
		c0.199,0.021,0.301,0.09,0.301,0.21c0.039,0.239-0.031,0.52-0.211,0.84s-0.4,0.63-0.66,0.93s-0.539,0.551-0.84,0.75
		c-0.299,0.2-0.57,0.319-0.811,0.36c-0.439,0.039-0.898-0.12-1.379-0.48c-0.48-0.359-0.93-0.87-1.35-1.529
		c-0.42-0.66-0.75-1.46-0.99-2.4c-0.24-0.939-0.34-1.95-0.301-3.03v-0.42c-1.16,1.641-2.18,3-3.061,4.08
		c-0.879,1.08-1.66,1.931-2.34,2.55c-0.68,0.621-1.279,1.06-1.799,1.32c-0.521,0.26-1,0.39-1.441,0.39
		c-0.561,0-1.17-0.16-1.828-0.479c-0.66-0.32-1.271-0.77-1.83-1.351c-0.561-0.579-1.031-1.269-1.41-2.069
		c-0.381-0.8-0.57-1.681-0.57-2.641c0.039-0.96,0.248-2.049,0.629-3.27c0.381-1.22,0.861-2.49,1.441-3.81
		c0.578-1.32,1.229-2.64,1.949-3.96c0.721-1.32,1.439-2.56,2.16-3.72c0.721-1.16,1.42-2.19,2.1-3.09s1.279-1.61,1.801-2.13
		c0.359-0.2,0.799-0.18,1.32,0.06c0.52,0.24,0.988,0.6,1.41,1.08c0.42,0.48,0.738,1.03,0.959,1.65
		c0.219,0.621,0.211,1.23-0.029,1.83c-0.121,0.321-0.432,0.921-0.93,1.8c-0.502,0.88-1.08,1.911-1.74,3.09
		c-0.66,1.18-1.342,2.421-2.041,3.72c-0.699,1.3-1.32,2.52-1.859,3.66c-0.541,1.14-0.941,2.11-1.201,2.91
		c-0.26,0.801-0.27,1.28-0.029,1.44s0.66,0.09,1.26-0.21c0.6-0.301,1.35-0.87,2.25-1.71s1.939-1.971,3.121-3.391
		c1.178-1.419,2.469-3.15,3.869-5.19c0.92-1.599,1.84-3.24,2.76-4.92s1.9-3.219,2.939-4.62c0.561-0.24,1.111-0.189,1.65,0.15
		c0.541,0.34,0.99,0.791,1.35,1.35c0.361,0.561,0.621,1.161,0.781,1.8c0.158,0.64,0.119,1.161-0.121,1.56
		c-0.16,0.36-0.459,0.981-0.898,1.86c-0.441,0.88-0.932,1.9-1.471,3.06c-0.541,1.161-1.09,2.37-1.65,3.63
		c-0.561,1.259-1.07,2.441-1.529,3.541c-0.461,1.1-0.82,2.05-1.08,2.85C494.338,57.949,494.248,58.448,494.33,58.648z"/>
	<path d="M505.309,59.908c0.039,0.12,0.158,0.2,0.359,0.24c0.199,0.04,0.41,0.06,0.631,0.06c0.219,0,0.428,0.011,0.629,0.03
		c0.199,0.021,0.301,0.09,0.301,0.21c0.039,0.24-0.041,0.53-0.24,0.87c-0.201,0.34-0.441,0.66-0.721,0.96s-0.57,0.57-0.869,0.81
		c-0.301,0.24-0.57,0.38-0.811,0.42c-0.439,0.08-0.881-0.04-1.32-0.359c-0.439-0.321-0.84-0.78-1.199-1.38
		c-0.359-0.601-0.65-1.34-0.871-2.221c-0.219-0.879-0.309-1.859-0.27-2.939c0.039-1.681,0.391-3.649,1.051-5.91
		c0.66-2.259,1.51-4.62,2.549-7.08c1.041-2.46,2.199-4.95,3.48-7.47c1.279-2.52,2.561-4.899,3.84-7.14
		c1.279-2.24,2.51-4.25,3.691-6.03c1.178-1.779,2.168-3.169,2.969-4.17c0.52-0.24,1.119-0.219,1.801,0.06
		c0.68,0.28,1.279,0.67,1.799,1.17c0.52,0.501,0.891,1.041,1.111,1.62c0.219,0.581,0.17,1.03-0.15,1.35
		c-0.24,0.24-0.701,0.93-1.381,2.07c-0.68,1.14-1.49,2.571-2.43,4.29c-0.939,1.72-1.971,3.641-3.09,5.76
		c-1.121,2.121-2.23,4.28-3.33,6.48c-1.1,2.2-2.16,4.36-3.18,6.48c-1.02,2.121-1.881,4.02-2.58,5.7
		c-0.701,1.681-1.221,3.07-1.561,4.17C505.178,59.059,505.107,59.709,505.309,59.908z M517.607,59.908
		c0.041,0.12,0.16,0.2,0.361,0.24c0.199,0.04,0.408,0.06,0.629,0.06s0.43,0.011,0.631,0.03c0.199,0.021,0.299,0.09,0.299,0.21
		c0.041,0.24-0.039,0.53-0.238,0.87c-0.201,0.34-0.441,0.66-0.721,0.96c-0.281,0.3-0.57,0.57-0.871,0.81
		c-0.299,0.24-0.568,0.38-0.809,0.42c-0.441,0.08-0.891-0.01-1.35-0.27c-0.461-0.261-0.891-0.66-1.291-1.2s-0.711-1.229-0.93-2.07
		c-0.221-0.84-0.311-1.8-0.27-2.88c0.078-1.879,0.488-4.039,1.229-6.479c0.74-2.439,1.682-4.98,2.82-7.62
		c1.141-2.64,2.41-5.31,3.811-8.01c1.4-2.7,2.789-5.229,4.17-7.59c1.381-2.36,2.689-4.47,3.93-6.33c1.24-1.86,2.26-3.29,3.061-4.29
		c0.52-0.24,1.119-0.219,1.799,0.06c0.68,0.28,1.281,0.67,1.801,1.17c0.52,0.501,0.891,1.041,1.109,1.62
		c0.221,0.581,0.17,1.03-0.148,1.35c-0.24,0.24-0.721,0.96-1.441,2.16c-0.719,1.2-1.58,2.71-2.58,4.53
		c-1,1.821-2.1,3.851-3.299,6.09c-1.201,2.241-2.391,4.521-3.57,6.84c-1.18,2.32-2.311,4.6-3.391,6.84
		c-1.08,2.241-2.01,4.25-2.789,6.03c-0.781,1.78-1.35,3.251-1.711,4.41C517.488,59.029,517.408,59.709,517.607,59.908z"/>
	<path d="M545.867,38.008c0.361-0.36,0.91-0.51,1.65-0.45s1.471,0.22,2.189,0.48c0.721,0.261,1.33,0.581,1.83,0.96
		c0.5,0.381,0.67,0.69,0.51,0.93c-0.32,0.36-0.729,1.041-1.229,2.04c-0.502,1-1.131,2.35-1.891,4.05
		c-0.76,1.701-1.68,3.75-2.76,6.15c-1.08,2.4-2.4,5.181-3.961,8.34c-1.879,3.8-3.93,7.3-6.148,10.5
		c-2.221,3.2-4.541,5.82-6.961,7.86s-4.92,3.38-7.5,4.021c-2.58,0.639-5.189,0.319-7.83-0.96c-1.68-0.801-2.84-1.852-3.48-3.15
		c-0.639-1.301-0.68-2.53-0.119-3.69c0.279-0.64,0.609-1.109,0.99-1.409c0.381-0.301,0.73-0.491,1.049-0.57
		c0.322-0.081,0.582-0.081,0.781,0c0.199,0.079,0.279,0.18,0.24,0.3c-0.439,0.88-0.65,1.729-0.631,2.55
		c0.021,0.819,0.211,1.54,0.57,2.16s0.881,1.1,1.561,1.44c0.68,0.339,1.459,0.47,2.34,0.39c1.32-0.04,2.77-0.551,4.35-1.53
		c1.58-0.98,3.24-2.46,4.98-4.439c1.74-1.98,3.51-4.48,5.309-7.5c1.801-3.021,3.561-6.59,5.281-10.711
		c-0.6,0.761-1.23,1.501-1.891,2.221s-1.289,1.36-1.891,1.92c-0.6,0.561-1.15,1.03-1.648,1.41c-0.502,0.381-0.91,0.591-1.23,0.63
		c-0.682,0.08-1.391-0.05-2.131-0.39s-1.43-0.83-2.07-1.471c-0.639-0.639-1.16-1.38-1.559-2.22c-0.4-0.84-0.58-1.74-0.541-2.7
		c0-1.119,0.26-2.369,0.781-3.75c0.52-1.38,1.158-2.779,1.92-4.2c0.758-1.419,1.578-2.81,2.459-4.17
		c0.879-1.359,1.719-2.57,2.52-3.63c0.801-1.06,1.48-1.92,2.041-2.58c0.559-0.66,0.9-0.99,1.02-0.99c0.6-0.039,1.18,0.09,1.74,0.39
		s1.039,0.67,1.439,1.11c0.4,0.441,0.691,0.891,0.871,1.35c0.18,0.46,0.189,0.81,0.029,1.05c-0.4,0.6-0.91,1.41-1.529,2.43
		c-0.621,1.02-1.281,2.13-1.98,3.33c-0.701,1.2-1.391,2.42-2.07,3.66c-0.68,1.24-1.26,2.37-1.74,3.39
		c-0.48,1.02-0.83,1.89-1.049,2.609c-0.221,0.721-0.211,1.141,0.029,1.261c0.24,0.239,0.74,0.09,1.5-0.45s1.65-1.32,2.67-2.34
		c1.02-1.021,2.119-2.19,3.301-3.51c1.178-1.32,2.309-2.64,3.389-3.96c0.68-1.4,1.281-2.58,1.801-3.54s0.959-1.74,1.32-2.34
		c0.359-0.6,0.648-1.08,0.869-1.44S545.748,38.209,545.867,38.008z"/>
	<path d="M551.268,56.908c0.561-0.12,1.061-0.14,1.5-0.06s0.83,0.21,1.17,0.39s0.609,0.381,0.811,0.6
		c0.199,0.221,0.32,0.411,0.359,0.57c0.08,0.4-0.059,0.95-0.42,1.65c-0.359,0.7-1.02,1.29-1.979,1.77
		c-0.561,0.2-1.021,0.279-1.381,0.24c-0.359-0.04-0.711-0.17-1.051-0.39s-0.568-0.631-0.689-1.23c-0.16-0.8-0.051-1.569,0.33-2.31
		S550.748,56.989,551.268,56.908z"/>
</g>
</svg>
