<?xml version="1.0" encoding="utf-8"?>
<!-- Generator: Adobe Illustrator 16.0.0, SVG Export Plug-In . SVG Version: 6.00 Build 0)  -->
<!DOCTYPE svg PUBLIC "-//W3C//DTD SVG 1.1//EN" "http://www.w3.org/Graphics/SVG/1.1/DTD/svg11.dtd">
<svg version="1.1" id="Layer_1" xmlns="http://www.w3.org/2000/svg" xmlns:xlink="http://www.w3.org/1999/xlink" x="0px" y="0px"
	 width="20px" height="20px" viewBox="0 0 50 50" enable-background="new 0 0 50 50" xml:space="preserve">
<g id="XMLID_1_">
	<path id="XMLID_208_" fill="#414042" d="M33.098,33.089c4.131,0,8.264-1.573,11.409-4.719c3.047-3.047,4.726-7.099,4.726-11.408
		c0-4.31-1.679-8.362-4.726-11.409c-6.292-6.292-16.527-6.291-22.819,0c-3.047,3.047-4.726,7.099-4.726,11.409
		c0,3.086,0.865,6.039,2.474,8.586L1.699,43.285l5.074,5.074L24.513,30.62C27.127,32.263,30.11,33.089,33.098,33.089z M6.773,44.21
		l-0.925-0.925l11.236-11.237l0.925,0.926L6.773,44.21z M20.085,30.899l-0.926-0.926l2.158-2.157l0.925,0.925L20.085,30.899z
		 M19.896,16.962c0-3.526,1.374-6.842,3.867-9.335c2.573-2.574,5.954-3.86,9.334-3.86c3.381,0,6.762,1.287,9.335,3.86
		c2.493,2.493,3.866,5.809,3.866,9.335c0,3.525-1.373,6.841-3.866,9.334c-4.707,4.708-12.112,5.107-17.281,1.204l-2.604-2.604
		C20.828,22.621,19.896,19.863,19.896,16.962z"/>
	<path id="XMLID_216_" fill="#414042" d="M41.577,25.441c4.676-4.676,4.676-12.284,0-16.96s-12.284-4.675-16.96,0
		c-4.676,4.676-4.676,12.284,0,16.96c2.339,2.338,5.409,3.507,8.479,3.507C36.168,28.948,39.239,27.779,41.577,25.441z
		 M26.692,10.556c1.766-1.766,4.085-2.649,6.404-2.649c2.32,0,4.64,0.883,6.406,2.649c3.531,3.532,3.531,9.279,0,12.811
		c-3.532,3.531-9.279,3.532-12.811,0C23.16,19.835,23.16,14.088,26.692,10.556z"/>
</g>
</svg>
